<svg width="49" height="42" viewBox="0 0 49 42" fill="none" xmlns="http://www.w3.org/2000/svg">
<path d="M43.5 7.4585H37.3582L30.9291 1.25496C30.7089 1.04173 30.4472 0.872637 30.1591 0.7574C29.8709 0.642163 29.5619 0.583062 29.25 0.583498H19.75C19.4381 0.583062 19.1291 0.642163 18.8409 0.7574C18.5528 0.872637 18.2911 1.04173 18.0709 1.25496L11.6418 7.4585H5.5C2.88037 7.4585 0.75 9.51412 0.75 12.0418V37.2502C0.75 39.7779 2.88037 41.8335 5.5 41.8335H43.5C46.1196 41.8335 48.25 39.7779 48.25 37.2502V12.0418C48.25 9.51412 46.1196 7.4585 43.5 7.4585ZM24.5 34.9585C18.0637 34.9585 12.625 29.7106 12.625 23.5002C12.625 17.2897 18.0637 12.0418 24.5 12.0418C30.9363 12.0418 36.375 17.2897 36.375 23.5002C36.375 29.7106 30.9363 34.9585 24.5 34.9585Z" fill="white"/>
</svg>
