<svg width="19" height="19" viewBox="0 0 19 19" fill="none" xmlns="http://www.w3.org/2000/svg">
<path d="M5.707 17.7071L15 8.41412L10.586 4.00012L1.293 13.2931C1.16506 13.4212 1.07418 13.5816 1.03 13.7571L0 19.0001L5.242 17.9701C5.418 17.9261 5.579 17.8351 5.707 17.7071ZM18 5.41412C18.3749 5.03907 18.5856 4.53045 18.5856 4.00012C18.5856 3.4698 18.3749 2.96118 18 2.58612L16.414 1.00012C16.0389 0.625182 15.5303 0.414551 15 0.414551C14.4697 0.414551 13.9611 0.625182 13.586 1.00012L12 2.58612L16.414 7.00012L18 5.41412Z" fill="white"/>
</svg>
